<svg width="226" height="64" viewBox="0 0 226 64" fill="none" xmlns="http://www.w3.org/2000/svg">
<g clip-path="url(#clip0_876_2785)">
<path d="M11.1552 27.0966V28.4528H17.2584V26.927C17.2584 25.7517 17.1114 24.7005 16.8176 23.7737C16.5464 22.8243 16.0942 22.0219 15.4614 21.3664C14.8511 20.6882 14.0486 20.1683 13.054 19.8067C12.0594 19.445 10.8501 19.2642 9.42601 19.2642C7.7985 19.2642 6.43093 19.4902 5.32332 19.9423C4.21571 20.3717 3.32284 21.0838 2.6447 22.0784C1.96657 23.073 1.48058 24.3727 1.18672 25.9777C0.915472 27.5826 0.779846 29.5378 0.779846 31.8435C0.779846 34.1039 0.892868 36.0365 1.11891 37.6415C1.36756 39.2238 1.80835 40.5236 2.44127 41.5407C3.07418 42.5354 3.95575 43.2474 5.08597 43.6769C6.2162 44.1063 7.66287 44.3211 9.42601 44.3211C10.4432 44.3211 11.4265 44.208 12.3759 43.982C13.3478 43.7786 14.2068 43.3717 14.9528 42.7614C15.6987 42.1285 16.2977 41.2695 16.7498 40.1845C17.2019 39.0995 17.4279 37.7093 17.4279 36.014V34.2169H11.3248C11.3248 35.3698 11.2909 36.3305 11.2231 37.099C11.1778 37.8449 11.0874 38.4439 10.9518 38.896C10.8162 39.3482 10.624 39.6759 10.3754 39.8793C10.1267 40.0602 9.81029 40.1506 9.42601 40.1506C8.95132 40.1506 8.56704 40.0263 8.27319 39.7776C8.00193 39.5289 7.78719 39.0881 7.62896 38.4553C7.49334 37.8224 7.40292 36.9747 7.35771 35.9123C7.3125 34.8273 7.2899 33.471 7.2899 31.8435C7.2899 30.216 7.3125 28.8711 7.35771 27.8086C7.40292 26.7236 7.49334 25.8646 7.62896 25.2317C7.78719 24.5988 8.00193 24.158 8.27319 23.9094C8.56704 23.6607 8.95132 23.5364 9.42601 23.5364C10.0363 23.5364 10.4771 23.7851 10.7484 24.2823C11.0196 24.7796 11.1552 25.7177 11.1552 27.0966ZM19.7033 19.7389V43.9481H33.7745V38.7943H26.0099V19.7389H19.7033ZM35.1611 19.7389V43.9481H41.4677V19.7389H35.1611ZM43.9688 19.7389V43.9481H49.8685V25.9098H49.9363L53.2931 43.9481H57.8366L61.1933 25.9098H61.2611V43.9481H67.1609V19.7389H58.1417L55.5987 34.0813H55.5309L52.9879 19.7389H43.9688ZM77.8011 24.6892L76.0719 34.9629H79.5982L77.8689 24.6892H77.8011ZM81.8021 19.7389L87.7018 43.9481H80.9883L80.3441 39.7098H75.3259L74.6817 43.9481H68.0699L73.868 19.7389H81.8021ZM90.0745 25.0961V43.9481H96.3811V25.0961H101.128V19.7389H85.3954V25.0961H90.0745ZM102.549 19.7389V43.9481H117.197V38.7943H108.856V33.9796H116.383V29.0292H108.856V24.8926H116.892V19.7389H102.549ZM134.952 24.6892L133.223 34.9629H136.749L135.02 24.6892H134.952ZM138.953 19.7389L144.853 43.9481H138.139L137.495 39.7098H132.477L131.832 43.9481H125.221L131.019 19.7389H138.953ZM155.557 27.0966V28.4528H161.66V26.927C161.66 25.7517 161.512 24.7005 161.219 23.7737C160.948 22.8243 160.495 22.0219 159.863 21.3664C159.252 20.6882 158.449 20.1683 157.455 19.8067C156.46 19.445 155.251 19.2642 153.827 19.2642C152.2 19.2642 150.832 19.4902 149.725 19.9423C148.616 20.3717 147.724 21.0838 147.046 22.0784C146.368 23.073 145.881 24.3727 145.588 25.9777C145.317 27.5826 145.181 29.5378 145.181 31.8435C145.181 34.1039 145.293 36.0365 145.52 37.6415C145.768 39.2238 146.209 40.5236 146.843 41.5407C147.475 42.5354 148.357 43.2474 149.487 43.6769C150.617 44.1063 152.064 44.3211 153.827 44.3211C154.845 44.3211 155.828 44.208 156.777 43.982C157.749 43.7786 158.608 43.3717 159.354 42.7614C160.1 42.1285 160.699 41.2695 161.151 40.1845C161.602 39.0995 161.829 37.7093 161.829 36.014V34.2169H155.726C155.726 35.3698 155.692 36.3305 155.624 37.099C155.579 37.8449 155.489 38.4439 155.353 38.896C155.218 39.3482 155.025 39.6759 154.777 39.8793C154.528 40.0602 154.211 40.1506 153.827 40.1506C153.353 40.1506 152.968 40.0263 152.675 39.7776C152.403 39.5289 152.188 39.0881 152.03 38.4553C151.895 37.8224 151.803 36.9747 151.759 35.9123C151.713 34.8273 151.691 33.471 151.691 31.8435C151.691 30.216 151.713 28.8711 151.759 27.8086C151.803 26.7236 151.895 25.8646 152.03 25.2317C152.188 24.5988 152.403 24.158 152.675 23.9094C152.968 23.6607 153.353 23.5364 153.827 23.5364C154.438 23.5364 154.878 23.7851 155.15 24.2823C155.421 24.7796 155.557 25.7177 155.557 27.0966ZM167.291 25.0961V43.9481H173.597V25.0961H178.344V19.7389H162.612V25.0961H167.291ZM179.528 19.7389V43.9481H185.835V19.7389H179.528ZM194.372 31.8435C194.372 30.216 194.394 28.8711 194.44 27.8086C194.485 26.7236 194.575 25.8646 194.711 25.2317C194.869 24.5988 195.084 24.158 195.355 23.9094C195.648 23.6607 196.033 23.5364 196.508 23.5364C196.983 23.5364 197.356 23.6607 197.627 23.9094C197.92 24.158 198.135 24.5988 198.271 25.2317C198.429 25.8646 198.53 26.7236 198.576 27.8086C198.622 28.8711 198.644 30.216 198.644 31.8435C198.644 33.471 198.622 34.8273 198.576 35.9123C198.53 36.9747 198.429 37.8224 198.271 38.4553C198.135 39.0881 197.92 39.5289 197.627 39.7776C197.356 40.0263 196.983 40.1506 196.508 40.1506C196.033 40.1506 195.648 40.0263 195.355 39.7776C195.084 39.5289 194.869 39.0881 194.711 38.4553C194.575 37.8224 194.485 36.9747 194.44 35.9123C194.394 34.8273 194.372 33.471 194.372 31.8435ZM187.862 31.8435C187.862 34.1039 188.009 36.0365 188.302 37.6415C188.596 39.2238 189.082 40.5236 189.76 41.5407C190.439 42.5354 191.332 43.2474 192.439 43.6769C193.546 44.1063 194.902 44.3211 196.508 44.3211C198.113 44.3211 199.469 44.1063 200.577 43.6769C201.684 43.2474 202.577 42.5354 203.255 41.5407C203.933 40.5236 204.42 39.2238 204.713 37.6415C205.007 36.0365 205.154 34.1039 205.154 31.8435C205.154 29.5831 205.007 27.6616 204.713 26.0794C204.42 24.4744 203.933 23.1748 203.255 22.1801C202.577 21.1629 201.684 20.4283 200.577 19.9762C199.469 19.5015 198.113 19.2642 196.508 19.2642C194.902 19.2642 193.546 19.5015 192.439 19.9762C191.332 20.4283 190.439 21.1629 189.76 22.1801C189.082 23.1748 188.596 24.4744 188.302 26.0794C188.009 27.6616 187.862 29.5831 187.862 31.8435ZM207.414 19.7389V43.9481H213.314V28.9953H213.382L217.586 43.9481H224.503V19.7389H218.603V34.6577H218.535L214.467 19.7389H207.414Z" fill="white"/>
<path d="M2.46969 2.45742V9.78071H4.91957V2.45742H6.76356V0.376343H0.652039V2.45742H2.46969ZM7.31562 0.376343V9.78071H9.7655V5.90832H11.267V9.78071H13.7169V0.376343H11.267V3.82724H9.7655V0.376343H7.31562ZM14.8788 0.376343V9.78071H20.5689V7.77866H17.3287V5.90832H20.2527V3.9853H17.3287V2.37839H20.4503V0.376343H14.8788Z" fill="white"/>
<path d="M185.017 55.7673L184.346 59.7583H185.715L185.043 55.7673H185.017ZM186.572 53.8443L188.863 63.2487H186.255L186.006 61.6023H184.056L183.806 63.2487H181.237L183.489 53.8443H186.572ZM192.429 58.1382V59.7978H193.298C193.298 60.2017 193.276 60.5354 193.232 60.7988C193.197 61.0535 193.145 61.2554 193.074 61.4047C193.004 61.5451 192.916 61.6418 192.811 61.6945C192.714 61.7471 192.599 61.7735 192.468 61.7735C192.284 61.7735 192.134 61.7252 192.02 61.6286C191.915 61.532 191.831 61.3607 191.77 61.1149C191.718 60.8691 191.683 60.5398 191.664 60.1271C191.647 59.7056 191.638 59.1787 191.638 58.5465C191.638 57.9143 191.647 57.3918 191.664 56.9791C191.683 56.5576 191.718 56.2239 191.77 55.9781C191.831 55.7323 191.919 55.561 192.033 55.4644C192.156 55.3678 192.319 55.3195 192.521 55.3195C192.811 55.3195 193 55.4557 193.087 55.7278C193.175 55.9562 193.219 56.3205 193.219 56.821H195.59C195.59 56.2502 195.515 55.7673 195.365 55.3722C195.217 54.9683 195.011 54.639 194.747 54.3843C194.484 54.1297 194.167 53.9453 193.798 53.8311C193.438 53.717 193.043 53.6599 192.612 53.6599C191.893 53.6599 191.304 53.7697 190.848 53.9892C190.392 54.1999 190.032 54.5116 189.768 54.9244C189.514 55.3371 189.338 55.8464 189.241 56.4522C189.153 57.0581 189.11 57.7562 189.11 58.5465C189.11 59.328 189.132 60.0217 189.175 60.6276C189.228 61.2335 189.347 61.7427 189.531 62.1555C189.715 62.5682 189.987 62.8799 190.347 63.0906C190.707 63.2926 191.199 63.3936 191.822 63.3936C192.033 63.3936 192.239 63.3804 192.442 63.3541C192.653 63.3277 192.846 63.2838 193.021 63.2223C193.206 63.152 193.368 63.0511 193.508 62.9194C193.658 62.7877 193.772 62.6209 193.851 62.4189H193.877L193.93 63.2487H195.59V58.1382H192.429ZM196.586 53.8443V63.2487H202.276V61.2466H199.036V59.3763H201.96V57.4533H199.036V55.8464H202.157V53.8443H196.586ZM203.172 53.8443V63.2487H205.464V57.4401H205.49L207.123 63.2487H209.811V53.8443H207.518V59.6397H207.492L205.912 53.8443H203.172ZM214.721 56.7025V57.2294H217.092V56.6366C217.092 56.1801 217.034 55.7718 216.921 55.4117C216.815 55.0429 216.639 54.7312 216.394 54.4765C216.157 54.2131 215.845 54.0111 215.458 53.8707C215.072 53.7302 214.602 53.6599 214.049 53.6599C213.417 53.6599 212.886 53.7477 212.456 53.9233C212.025 54.0901 211.678 54.3667 211.415 54.7531C211.151 55.1395 210.962 55.6444 210.848 56.2678C210.743 56.8913 210.69 57.6508 210.69 58.5465C210.69 59.4245 210.734 60.1753 210.822 60.7988C210.918 61.4134 211.09 61.9184 211.335 62.3135C211.582 62.6999 211.924 62.9765 212.363 63.1433C212.802 63.3101 213.365 63.3936 214.049 63.3936C214.444 63.3936 214.826 63.3496 215.194 63.2619C215.572 63.1828 215.906 63.0248 216.196 62.7877C216.485 62.5419 216.719 62.2081 216.893 61.7867C217.069 61.3652 217.157 60.8251 217.157 60.1666V59.4685H214.786C214.786 59.9163 214.773 60.2896 214.747 60.5881C214.73 60.8778 214.695 61.1105 214.641 61.2861C214.589 61.4618 214.515 61.5891 214.418 61.6681C214.32 61.7384 214.198 61.7735 214.049 61.7735C213.864 61.7735 213.715 61.7252 213.601 61.6286C213.496 61.532 213.413 61.3607 213.35 61.1149C213.298 60.8691 213.263 60.5398 213.246 60.1271C213.228 59.7056 213.218 59.1787 213.218 58.5465C213.218 57.9143 213.228 57.3918 213.246 56.9791C213.263 56.5576 213.298 56.2239 213.35 55.9781C213.413 55.7323 213.496 55.561 213.601 55.4644C213.715 55.3678 213.864 55.3195 214.049 55.3195C214.287 55.3195 214.457 55.4161 214.563 55.6093C214.667 55.8024 214.721 56.1669 214.721 56.7025ZM219.661 59.5475V63.2487H222.111V59.5475L224.508 53.8443H221.822L220.9 57.124H220.874L219.952 53.8443H217.304L219.661 59.5475Z" fill="white"/>
<path d="M224.565 0.391235H25.9515V9.78073H224.565V0.391235Z" fill="white"/>
<path d="M0.652039 53.8593H179.118L176.836 63.2488H0.652039V53.8593Z" fill="white"/>
</g>
<defs>
<clipPath id="clip0_876_2785">
<rect width="226" height="63.5095" fill="white"/>
</clipPath>
</defs>
</svg>
